<svg xmlns="http://www.w3.org/2000/svg" viewBox="0 0 80.03 67.94"><defs><style>.cls-1{fill:#008f45;}</style></defs><title>Asset 1</title><g id="Layer_2" data-name="Layer 2"><g id="レイヤー_1" data-name="レイヤー 1"><path class="cls-1" d="M68.1,5.17,62,25.17H58.19l6.09-20H68.1M69.37,3.3H64.14a1.88,1.88,0,0,0-1.65,1.32L56.06,25.74a.92.92,0,0,0,.85,1.31h5.24a1.89,1.89,0,0,0,1.64-1.31L70.22,4.62a.92.92,0,0,0-.85-1.32Z"/><path class="cls-1" d="M61.77,30,52.62,62.23a1.23,1.23,0,0,1-.43.66H46.87L56,30.71a1.31,1.31,0,0,1,.43-.67h5.32m.95-1.87h-6.4a2.61,2.61,0,0,0-2.1,2L45,62.74c-.32,1.12.11,2,1,2h6.4a2.62,2.62,0,0,0,2.1-2L63.67,30.2c.31-1.12-.11-2-1-2Z"/><path class="cls-1" d="M41.64,28.86a2.74,2.74,0,0,1,2.74-2.74,2.84,2.84,0,0,1,.66.08L53.42.06H41.58L33.47,25.54H26.12L34.59.06,21.94,0,13.46,26.23H5.24l3,4.62H12L0,67.94H13.71L25.18,30.6h6.48L20,67.94H31.66L43.37,31.41A2.74,2.74,0,0,1,41.64,28.86Z"/><path class="cls-1" d="M56.26,1.31h0m21.44.56L70.41,25.56a1.88,1.88,0,0,0,.06,1.28l1.72,4.1L61.59,66.07H36.24L46.48,33A4.7,4.7,0,0,0,48,31.78a4.63,4.63,0,0,0,1-2.92,4.56,4.56,0,0,0-.56-2.21L56.09,1.87H77.7M79.37,0H55.58a1.2,1.2,0,0,0-1.1.75L46.37,27A2.75,2.75,0,0,1,45,31.54l-11,35.65c-.13.41.16.75.64.75H62.1a1.22,1.22,0,0,0,1.11-.75l11-36.35-2-4.73L80,.75c.13-.41-.15-.75-.63-.75Z"/></g></g></svg>