<svg xmlns="http://www.w3.org/2000/svg" width="181.2px" height="66.6px" viewBox="0 0 248.94 67.94"><defs><style>.cls-1{fill:#008c45;}.cls-2{fill:#39af4a;}</style></defs><g id="Layer_2" data-name="Layer 2"><g id="レイヤー_1" data-name="レイヤー 1"><path class="cls-1" d="M68.1,5.17,62,25.17H58.19l6.09-20H68.1M69.37,3.3H64.14a1.88,1.88,0,0,0-1.65,1.32L56.06,25.74a.92.92,0,0,0,.85,1.31h5.24a1.89,1.89,0,0,0,1.64-1.31L70.22,4.62a.92.92,0,0,0-.85-1.32Z"/><path class="cls-1" d="M61.77,30,52.62,62.23a1.23,1.23,0,0,1-.43.66H46.87L56,30.71a1.31,1.31,0,0,1,.43-.67h5.32m.95-1.87h-6.4a2.61,2.61,0,0,0-2.1,2L45,62.74c-.32,1.12.11,2,1,2h6.4a2.62,2.62,0,0,0,2.1-2L63.67,30.2c.31-1.12-.11-2-1-2Z"/><path class="cls-1" d="M41.64,28.86a2.74,2.74,0,0,1,2.74-2.74,2.84,2.84,0,0,1,.66.08L53.42.06H41.58L33.47,25.54H26.12L34.59.06,21.94,0,13.46,26.23H5.24l3,4.62H12L0,67.94H13.71L25.18,30.6h6.48L20,67.94H31.66L43.37,31.41A2.74,2.74,0,0,1,41.64,28.86Z"/><path class="cls-1" d="M56.26,1.31h0m21.44.56L70.41,25.56a1.88,1.88,0,0,0,.06,1.28l1.72,4.1L61.59,66.07H36.24L46.48,33A4.7,4.7,0,0,0,48,31.78a4.63,4.63,0,0,0,1-2.92,4.56,4.56,0,0,0-.56-2.21L56.09,1.87H77.7M79.37,0H55.58a1.2,1.2,0,0,0-1.1.75L46.37,27A2.75,2.75,0,0,1,45,31.54l-11,35.65c-.13.41.16.75.64.75H62.1a1.22,1.22,0,0,0,1.11-.75l11-36.35-2-4.73L80,.75c.13-.41-.15-.75-.63-.75Z"/><path class="cls-1" d="M103.24,6.3c-.22.34-.43.66-.65,1l8,0-1,8.26c-.14,1.13-.43,1.79-1.27,2.16a7.89,7.89,0,0,1-3.23.39,7.74,7.74,0,0,0-.47-2.36c.75.05,1.77.06,2,.06s.4-.09.43-.31l.07-.6-5.82,0L101,18.05H98.42l.85-6.95A13.71,13.71,0,0,1,97.1,12.7a12.13,12.13,0,0,0-1.47-1.89,14.69,14.69,0,0,0,4.7-4.52H96.78L97.06,4l4.65,0c.32-.66.62-1.33.87-2l2.59.58c-.22.47-.43.93-.67,1.4l8.41,0-.28,2.29Zm4.17,6.57.09-.72-5.82,0-.09.72Zm.43-3.45L102,9.4l-.08.71,5.82,0Z"/><path class="cls-1" d="M121.21,3.7c-.63,1.52-1.43,3.45-2.07,4.77a4.59,4.59,0,0,1,.75,3.35,2.91,2.91,0,0,1-1.17,2.36,2.64,2.64,0,0,1-1.12.4,8.41,8.41,0,0,1-1.17.05,5.43,5.43,0,0,0-.15-1.81l-.65,5.31h-2.37l1.88-15.3h4.08l.36-.08Zm-4.88,8.77h.44a.86.86,0,0,0,.49-.13,1.21,1.21,0,0,0,.37-.86,3.87,3.87,0,0,0-.72-2.77c.41-1,.93-2.51,1.32-3.7h-1Zm13.34-.17c-.78.65-1.62,1.31-2.35,1.85A5.19,5.19,0,0,0,129.57,16a10.73,10.73,0,0,0-1.91,2.07c-2.44-1.34-3.39-3.84-3.72-7.11H123l-.48,3.9c.7-.12,1.42-.22,2.12-.33l-.07,2.12c-2,.43-4.1.85-5.79,1.18l-.56-2.38,1.77-.23,1.52-12.37,8.38,0-1,8.1h-1.05ZM123.3,8.9h3.36l.12-1h-3.36ZM123.78,5l-.12,1H127l.12-.94Zm2.37,6a10.25,10.25,0,0,0,.33,1.35A16.68,16.68,0,0,0,127.81,11Z"/><path class="cls-1" d="M135.6,8.17a23.53,23.53,0,0,1-3.08,1.58,8.45,8.45,0,0,0-1.26-2.07A19.62,19.62,0,0,0,139,2.21h2.71a12.6,12.6,0,0,0,6.69,5.16,14.57,14.57,0,0,0-1.93,2.23,18.83,18.83,0,0,1-2.64-1.54l-.17,1.38-8.17,0Zm7.25,4.56a18.18,18.18,0,0,1,3.21,4.11l-2.56,1.38a8.64,8.64,0,0,0-.51-1c-4.08.21-8.36.38-11.38.5l0-2.4c.81,0,1.71,0,2.7-.07a26.81,26.81,0,0,0,1.35-2.54l-3.78,0,.28-2.27,14.65.05-.28,2.28Zm-.24-5.53a11.68,11.68,0,0,1-2.49-2.64,18.73,18.73,0,0,1-3,2.62Zm-3.84,5.52c-.54.82-1.11,1.68-1.64,2.46l4.31-.14c-.4-.49-.81-1-1.22-1.39l2-.92Z"/><path class="cls-1" d="M154.74,13.79c-.27-.42-.64-1-1-1.5l-.74,6h-2.53l.67-5.44a15.94,15.94,0,0,1-2.05,1.34,9.25,9.25,0,0,0-.89-2.37,13.84,13.84,0,0,0,5.13-4.24l-3.92,0,.27-2.21H152l.38-3.08h2.53l-.38,3.08H155l.45-.08,1.31.9a18.33,18.33,0,0,1-2.39,3.56c.77.67,1.9,1.75,2.21,2.09Zm10.15,1.62-.3,2.41-10.06,0,.3-2.41h3.85l.7-5.71-3.11,0,.29-2.36,3.11,0,.6-4.88h2.64l-.6,4.87,3.13,0-.29,2.36H162l-.7,5.71Z"/><path class="cls-1" d="M114.42,30.29c-.77,2.45-1.86,6.17-4.39,9.35a23,23,0,0,1-10.92,7.27L96,43.38c3.44-.74,7.94-2.75,10.35-5.86a18.84,18.84,0,0,0,3.22-7.09l-11.58-.05-.46,3.75a19.89,19.89,0,0,0-.18,2.32H92.58c.18-.86.35-1.55.44-2.33l.66-5.31a23.17,23.17,0,0,0,.15-2.35c.89.05,2.18.11,3.45.11l12.08,0a17.34,17.34,0,0,0,3-.19l2.86,1.89A18.38,18.38,0,0,0,114.42,30.29Z"/><path class="cls-1" d="M130,30.68a41.63,41.63,0,0,0,8.31-6.2l3.07,3.18A59.76,59.76,0,0,1,133.62,33l-1.23,10a17.49,17.49,0,0,0-.18,3.67l-5.07,0A34,34,0,0,0,127.8,43l.91-7.41A60,60,0,0,1,119.38,39l-1.51-3.87A48.36,48.36,0,0,0,130,30.68Z"/><path class="cls-1" d="M150.13,27.51l14.3.06A23.48,23.48,0,0,0,167,27.4l-.52,4.2c-.83-.08-1.8-.14-2.57-.14l-5.17,0L157.61,41l6.59,0a18.68,18.68,0,0,0,2.64-.22l-.54,4.43c-.75-.1-1.94-.13-2.6-.14l-17.38-.06a26.74,26.74,0,0,0-2.76.12l.54-4.43a16.66,16.66,0,0,0,2.72.24l6.3,0,1.18-9.58-4.64,0c-.82,0-2,0-2.69.11l.52-4.19A21.35,21.35,0,0,0,150.13,27.51Z"/><path class="cls-1" d="M184,29.43c-1.21,2.5-3.84,8.26-5.52,11.62,2.85-.24,6-.58,8.5-.85a25.08,25.08,0,0,0-2-4.29l4.2-1.55A69,69,0,0,1,193.59,45L189,46.86c-.21-.83-.49-1.8-.82-2.81-4.41.49-12.07,1.19-15.31,1.51l-2.68.32-.18-4.48c.95,0,2.24,0,3.14,0a1.84,1.84,0,0,0,.4,0c2-3.78,4.83-10.12,5.95-12.83a23,23,0,0,0,1.08-3.18l4.95,1C185.07,27.19,184.51,28.27,184,29.43Z"/><path class="cls-1" d="M202.24,41.87c.68,1.58,2.21,2.24,4.68,2.35a134.24,134.24,0,0,0,13.61-.2,18.38,18.38,0,0,0-1.62,3.56c-3.48.16-9.1.19-12.46,0-3-.14-4.87-.8-6.19-2.73-1.11.93-2.25,1.81-3.73,2.89l-1.32-3.67c1-.55,2.22-1.26,3.33-2l.61-5h-2.74l.42-3.39,6.41,0Zm-1.19-11a18.06,18.06,0,0,0-3.36-4.21l3.18-2.06a19.19,19.19,0,0,1,3.64,4Zm8.48,11.57-6.49,0,.32-2.61,6.49,0,.07-.56-5.2,0,.93-7.59,5.2,0,.07-.58-5.54,0,.31-2.48,5.54,0,.12-1h3.72l-.12,1,5.72,0-.3,2.48-5.73,0-.07.58,5.46,0-.93,7.58-5.46,0-.07.56,6.91,0-.32,2.6-6.91,0-.15,1.24-3.72,0Zm-1.3-14.15h-3.35l.44-3.59,16.84.06-.45,3.59h-3.53l.13-1-9.95,0Zm2,8.82.07-.61h-1.95l-.08.61Zm-1.63-2.64h1.95l.07-.61h-2ZM216,36.56H214l-.07.61H216Zm-1.74-2.64-.07.61h2.06l.07-.61Z"/><path class="cls-1" d="M229.09,41.16l3.67,0-.39,3.18H228.7L228.25,48h-3.33l.46-3.69-3.72,0,.39-3.18h3.72l.15-1.21-3.17,0,1.16-9.4h3.14l.13-1.12h-3.37l.38-3.13h3.38l.27-2.23h3.33l-.28,2.23h3.78l-.39,3.14h-3.77l-.14,1.11h3A20.91,20.91,0,0,0,240,24.12h3.3c1.3,2.54,3.33,5.13,5.64,6.28a21.11,21.11,0,0,0-2.31,3.17,12.86,12.86,0,0,1-2.2-1.85l-.18,1.42-7.25,0,.15-1.24a18.41,18.41,0,0,1-2.6,1.81,13.23,13.23,0,0,0-1-2.35L232.49,40h-3.25Zm-3.47-3.73h1.16l.13-1h-1.16Zm.41-3.36h1.16l.13-1h-1.16Zm4.23,2.34h-1.14l-.12,1h1.13Zm.41-3.36h-1.13l-.13,1h1.13ZM239,45.5a2.76,2.76,0,0,1-1,2.17,3.39,3.39,0,0,1-2.15.48,7.28,7.28,0,0,0-.3-2.49h.66c.13,0,.17-.05.19-.23l.25-2h-1.24L234.85,48h-2.53L234,34.2l6.34,0Zm-2-4.61.11-.91h-1.24l-.11.91Zm-.73-4.15-.12.93h1.24l.12-.94Zm6.94-6.46a17.65,17.65,0,0,1-1.82-2.84,22.62,22.62,0,0,1-2.43,2.83Zm-.84,13.89h-2.56l1.14-9.23h2.56Zm2-10.34h2.95l-1.4,11.38c-.15,1.29-.46,2-1.35,2.45a8.55,8.55,0,0,1-3.6.47,9.05,9.05,0,0,0-.49-2.66c.84,0,1.77,0,2.06,0s.4-.1.43-.35Z"/><path class="cls-2" d="M95.68,63.26l-1.26-6.72h1.72l.68,4.58h0l1.81-4.57h1.57l-2.9,6.7-.41,3.33H95.27Z"/><path class="cls-2" d="M103.49,63.7h0l2-7.12h2.29l-1.23,10H105l.88-7.2h0l-2,7.19h-1.55l-.33-7.1h0l-.87,7.1H99.64l1.23-10h2.29Z"/><path class="cls-2" d="M110.83,56.6h5.09l-.18,1.44H114l-1,8.61h-1.65l1.06-8.6h-1.73Z"/><path class="cls-2" d="M118.85,66.67a2.83,2.83,0,0,1,0-1.23l.19-1.58c.12-.93-.17-1.28-.92-1.28h-.57l-.5,4.08h-1.64l1.23-10h2.48c1.71,0,2.35.77,2.16,2.31l-.1.79a2.25,2.25,0,0,1-1.32,2v0c.79.33,1,1.08.84,2.13l-.2,1.55a2.89,2.89,0,0,0,0,1.22Zm-.74-8.61-.38,3.08h.64c.62,0,1-.25,1.12-1l.12-1c.09-.72-.12-1-.71-1Z"/><path class="cls-2" d="M126.75,66.7h-1.66L125,64.87h-2l-.51,1.82H121l2.91-10h2.41Zm-3.36-3.2H125l-.15-5.08h0Z"/><path class="cls-2" d="M129.91,59.43h0l-.9,7.28H127.5l1.23-10h2.07l.92,6h0l.74-6H134l-1.23,10H131Z"/><path class="cls-2" d="M137.37,56.58c1.6,0,2.31.93,2.12,2.53l0,.32h-1.56l.05-.41c.09-.72-.18-1-.7-1s-.86.27-.94,1,.17,1.28,1.13,2.18c1.24,1.17,1.57,2,1.43,3.15a2.58,2.58,0,0,1-2.76,2.52c-1.62,0-2.35-.93-2.15-2.54l.08-.61h1.55l-.09.72c-.08.72.21,1,.74,1s.88-.26,1-1-.17-1.28-1.14-2.19c-1.23-1.17-1.56-2-1.42-3.15A2.54,2.54,0,0,1,137.37,56.58Z"/><path class="cls-2" d="M145.32,59.2l-.16,1.31A2.52,2.52,0,0,1,142.4,63h-.78l-.46,3.77h-1.65l1.23-10h2.43C144.81,56.72,145.51,57.6,145.32,59.2Zm-3.11-1.05-.42,3.39h.78c.53,0,.84-.23.93-.95l.18-1.5c.09-.72-.17-1-.69-1Z"/><path class="cls-2" d="M146,59.14a2.61,2.61,0,0,1,2.81-2.52A2,2,0,0,1,151,59.15l-.64,5.22a2.61,2.61,0,0,1-2.81,2.52,2,2,0,0,1-2.19-2.53Zm1,5.32c-.09.72.21,1,.73,1s.89-.26,1-1l.67-5.42c.09-.72-.21-1-.73-1s-.89.27-1,1Z"/><path class="cls-2" d="M154.52,66.8a3.11,3.11,0,0,1,0-1.23l.19-1.58c.11-.93-.17-1.28-.92-1.28h-.57l-.5,4.08h-1.65l1.23-10h2.49c1.7,0,2.34.77,2.15,2.31l-.09.79a2.25,2.25,0,0,1-1.33,2v0c.78.33,1,1.08.83,2.13l-.19,1.55a2.75,2.75,0,0,0,0,1.22Zm-.74-8.61-.37,3.08h.64c.61,0,1-.25,1.12-1.05l.12-1c.09-.72-.13-1-.71-1Z"/><path class="cls-2" d="M157.85,56.77l5.09,0-.17,1.43H161l-1,8.61h-1.65l1.06-8.6h-1.72Z"/><path class="cls-2" d="M166,56.8h1.65l-1.06,8.61h2.71l-.18,1.43h-4.35Z"/><path class="cls-2" d="M170.58,56.81l5.09,0-.18,1.44h-1.72l-1.06,8.61h-1.64l1.05-8.6H170.4Z"/><path class="cls-2" d="M176.39,56.84H179c1.65,0,2.35.88,2.15,2.49l-.62,5.07a2.52,2.52,0,0,1-2.76,2.48h-2.61Zm1.47,1.44L177,65.45h.92c.53,0,.87-.25,1-1l.64-5.22c.09-.72-.19-1-.71-1Z"/><path class="cls-2" d="M183,65.38l-.19,1.52h-1.59l.19-1.52Z"/></g></g></svg>