<svg xmlns="http://www.w3.org/2000/svg" viewBox="0 0 398.03 337.89"><defs><style>.cls-1{fill:#fff;}</style></defs><title>Asset 2</title><g id="Layer_2" data-name="Layer 2"><g id="レイヤー_1" data-name="レイヤー 1"><path class="cls-1" d="M338.66,25.73,308.39,125.2l0,0h-19l30.27-99.47,0,0h19m6.35-9.3H319c-3.42,0-7.08,2.92-8.18,6.52L278.81,128c-1.1,3.6.79,6.53,4.22,6.53h26c3.43,0,7.09-2.93,8.19-6.53L349.23,23c1.09-3.6-.79-6.52-4.22-6.52Z"/><path class="cls-1" d="M307.18,149.41,261.69,309.48a6.64,6.64,0,0,1-2.14,3.3H233.09l45.49-160.07a6.64,6.64,0,0,1,2.14-3.3h26.46m4.73-9.29H280.07c-4.19,0-8.86,4.5-10.44,10L223.64,312c-1.58,5.55.53,10.05,4.72,10.05H260.2c4.18,0,8.86-4.5,10.44-10.05l46-161.86c1.58-5.55-.54-10-4.72-10Z"/><path class="cls-1" d="M207.07,143.53a13.64,13.64,0,0,1,13.64-13.64,13.81,13.81,0,0,1,3.3.4L265.66.31h-58.9L166.46,127H129.89L172,.31,109.12,0,67,130.43H26l14.88,23h18.6L0,337.89H68.2l57-185.72h32.23L99.2,337.89h58.27L215.7,156.21A13.64,13.64,0,0,1,207.07,143.53Z"/><path class="cls-1" d="M279.81,6.49h0M386.43,9.3,350.16,127.14a9.31,9.31,0,0,0,.31,6.33L359,153.86,306.3,328.59H180.24L231.13,164a22.9,22.9,0,0,0,12.52-20.43,22.82,22.82,0,0,0-2.8-11L278.94,9.3H386.43M394.71,0H276.4a6,6,0,0,0-5.48,3.75l-40.31,130.4a13.64,13.64,0,0,1-7,22.71l-54.8,177.28c-.64,2.07.78,3.75,3.16,3.75H308.86a6,6,0,0,0,5.48-3.75l54.54-180.79-9.83-23.48L397.87,3.75c.64-2.07-.77-3.75-3.16-3.75Z"/></g></g></svg>